<?xml version="1.0" standalone="no"?>
<!DOCTYPE svg PUBLIC "-//W3C//DTD SVG 20010904//EN" "http://www.w3.org/TR/2001/REC-SVG-20010904/DTD/svg10.dtd">
<!-- Created using Krita: http://krita.org -->
<svg xmlns="http://www.w3.org/2000/svg" 
    xmlns:xlink="http://www.w3.org/1999/xlink"
    xmlns:krita="http://krita.org/namespaces/svg/krita"
    xmlns:sodipodi="http://sodipodi.sourceforge.net/DTD/sodipodi-0.dtd"
    width="2048pt"
    height="2826pt"
    viewBox="0 0 2048 2826">
<defs/>
<path id="shape0" transform="matrix(11.9766087315625 0 0 11.978635976408 -3638.13432968125 -3274.51278003692)" fill="#000000" d="M114.25 2.69276C137.27 -3.77724 162.96 1.71276 182.06 15.9328C191.11 21.5128 196.31 31.5628 205.51 36.8828C214.18 42.8828 224.88 41.5528 234.7 40.5028C229.01 47.3628 219.97 51.0428 211.1 49.8728C213.98 57.8728 216.06 66.1228 218.54 74.2428C219.3 87.5928 219.36 101.503 214.14 114.083C212.13 118.753 207.85 121.753 204.74 125.583C202.19 133.443 199.95 141.513 199.37 149.803C197.19 146.713 197.48 142.613 195.64 139.313C194.24 144.883 191.04 149.673 188.45 154.703C187.2 157.023 183.49 155.673 182.16 157.973C178.28 164.163 177.11 171.643 173.32 177.873C173.15 177.053 172.81 175.413 172.64 174.603C169.89 176.773 166.76 178.413 163.39 179.413C166.48 170.083 167.78 160.313 166.17 150.523C164.85 145.323 167.62 140.423 168.17 135.333C160.13 137.383 156.37 146.073 149.93 150.773C150.26 157.143 149.72 163.823 144.53 168.323C146.52 171.803 149.22 174.803 152.42 177.213C150.39 183.153 145.27 188.003 144.51 194.223C148.2 202.583 153.91 210.263 156.17 219.303C150.18 218.703 144.57 215.903 138.44 216.413C140.42 229.063 145.69 240.933 149.38 253.173C99.59 253.333 49.79 253.193 0 253.243C0.19 214.893 0.03 176.533 0.08 138.183C-0.32 135.213 2.3 132.243 5.35 132.673C10.5 133.983 13 139.763 17.67 141.753C24.15 140.663 32.16 139.633 34.53 132.393C42.53 124.433 40.1 110.443 50.11 104.033C60.22 97.9028 72.63 96.9528 84.21 97.8428C83.78 95.9928 83.64 93.8028 81.63 92.9728C76.61 90.2328 74.55 84.5228 73.42 79.2528C70.87 80.2028 69.09 82.2628 67.26 84.1528C52.5 97.9428 34.43 107.383 16.64 116.603C10.59 120.313 5.53 125.353 0.23 130.013C0.15 122.163 -0.29 114.263 0.36 106.443C2.66 103.333 5.99 101.193 9.12 98.9928C27.63 87.1528 47.72 77.9628 68.61 71.2528C61.35 67.3528 63.15 58.0128 66.14 51.8128C72.42 34.9128 85.23 21.1628 99.94 11.1028C104.97 8.66276 108.53 3.69276 114.25 2.69276M72.46 63.5128C72.01 53.4928 77.29 44.8728 79.39 35.4128C70.87 42.0428 69.62 53.6928 72.46 63.5128M27.49 105.173C36.76 100.233 45.98 95.2228 54.25 88.6828C44.49 92.5028 35.4 98.4628 27.49 105.173M207.81 116.593C215.15 111.693 215.09 101.873 214.13 94.0628C211.88 101.533 209.23 108.893 207.81 116.593Z"/><path id="shape1" transform="matrix(11.9766087315625 0 0 11.978635976408 -6268.85719746432 -3212.94640218902)" fill="#000000" d="M82.3151 0.233058C89.9551 -1.47694 91.8251 6.64306 96.1351 10.8831C99.5151 14.4431 99.6051 19.6831 102.275 23.6431C111.715 34.0631 107.405 51.1931 118.285 60.8131C121.055 64.2731 126.945 63.7331 128.445 68.3431C132.865 75.3131 136.255 82.9231 137.715 91.0931C138.765 97.4231 141.425 104.303 138.195 110.433C136.835 112.833 137.185 115.613 137.295 118.243C140.955 121.073 143.485 117.223 146.905 116.143C146.195 117.913 145.415 119.663 144.555 121.383C145.185 122.003 145.805 122.623 146.435 123.243C150.165 122.473 154.685 126.913 148.575 126.823C151.025 130.373 147.835 134.403 148.895 138.243C151.595 152.753 154.185 167.753 152.725 182.233C157.605 181.203 156.115 173.943 161.415 173.143C161.435 175.973 161.715 179.093 159.455 181.243C158.885 184.973 159.045 189.183 163.265 190.593C163.605 182.873 167.565 176.293 171.245 169.803C173.195 175.193 174.475 180.813 174.885 186.543C176.535 187.563 178.175 188.593 179.815 189.633C179.245 197.243 180.335 205.663 185.585 211.573C187.635 213.983 189.705 216.733 189.775 220.043C188.865 229.393 186.755 238.633 186.215 248.013C132.165 248.123 78.1051 248.243 24.0651 247.953C28.7351 234.693 29.9951 220.513 34.0351 207.093C35.0551 189.473 54.7551 180.603 55.7451 163.133C56.5651 156.343 56.9951 148.353 51.5351 143.263C51.5351 139.833 51.5351 136.403 51.3751 132.973C52.0051 132.613 53.2751 131.893 53.9051 131.523C50.4451 122.193 48.1751 111.853 50.6851 101.993C51.3051 99.2131 52.5851 96.0231 50.5251 93.5231C46.3251 88.5631 56.4451 83.2531 51.5051 78.4731C38.9951 78.3631 24.8451 79.7031 14.3551 71.4931C7.15507 65.4831 -3.04493 57.4731 0.865071 46.7931C3.91507 46.5731 7.08507 46.2631 9.97507 47.5031C16.3651 50.2231 23.3851 50.5531 30.0351 52.3931C35.1851 53.1731 38.5051 58.4831 43.9451 58.2531C50.9551 57.7731 57.9851 57.6231 65.0051 58.1531C69.7951 58.6331 73.4051 54.9031 77.8551 53.9331C83.7651 51.8631 90.0951 52.8131 96.1451 51.5631C94.2351 45.3131 89.1951 40.7231 87.0051 34.5931C83.0051 23.6831 80.5351 11.8531 82.3151 0.233058Z"/><path id="shape2" transform="matrix(11.9766087315625 0 0 11.978635976408 2901.26196943071 -2975.75358748191)" fill="#000000" d="M68.866 1.30174C72.856 -0.288262 77.246 0.731738 81.296 1.62174C86.366 2.91174 91.246 0.171738 96.306 0.0517382C107.316 -0.568262 117.536 4.49174 127.026 9.45174C133.116 13.7417 139.596 17.8717 143.436 24.4817C146.916 26.8717 152.126 27.6517 153.646 32.2817C156.266 40.8917 157.266 49.9017 159.316 58.6417C166.636 64.7417 179.656 64.7617 183.016 75.0517C180.536 78.4717 179.396 82.7617 176.436 85.8217C171.436 87.9917 166.876 82.2917 162.186 84.7317C162.526 88.5917 167.236 91.5117 165.556 95.4717C161.746 99.6017 155.626 97.4217 150.736 98.5617C147.186 112.432 147.086 127.192 141.206 140.382C139.966 143.882 140.056 147.972 137.606 150.952C132.976 151.972 133.146 145.892 132.036 142.882C127.276 143.762 124.116 140.522 123.466 136.072C122.546 135.992 121.636 135.902 120.746 135.822C114.236 142.422 117.816 151.972 115.856 160.042C111.196 158.762 107.736 161.252 105.046 164.772C104.576 161.992 104.176 159.212 103.836 156.422C99.756 157.272 95.696 158.172 91.646 159.072C92.656 165.622 98.556 169.672 104.216 172.092C117.036 179.532 135.456 179.252 142.926 194.112C145.416 205.812 152.786 216.232 152.806 228.512C102.096 228.572 51.376 228.572 0.665978 228.512C0.875978 221.092 -1.13403 213.552 0.965978 206.252C3.54597 201.692 9.15597 199.552 14.226 199.872C21.596 179.482 46.176 170.612 50.706 148.732C52.566 148.422 54.426 148.112 56.306 147.802C56.736 143.242 52.866 140.612 48.896 139.732C45.106 130.942 39.596 122.692 33.146 115.662C30.386 123.002 34.496 131.442 30.206 138.322C27.316 143.402 26.896 149.382 25.426 154.932C24.086 154.502 22.746 154.072 21.436 153.642C20.806 149.912 17.196 148.382 14.926 145.822C13.606 142.282 14.436 138.412 13.796 134.762C11.906 132.572 9.83597 130.492 9.08597 127.592C11.516 122.472 15.276 118.122 17.686 113.032C20.166 108.072 12.376 104.372 15.706 99.5417C18.836 95.3617 18.966 89.8817 17.896 84.9617C16.756 79.5417 7.75597 79.6617 8.67597 73.3417C9.37597 70.0217 12.906 68.1417 14.966 65.6117C13.276 53.4217 14.586 40.7617 19.676 29.5117C23.406 27.1317 28.336 28.3517 32.576 28.1017C41.126 20.2117 48.136 9.26174 60.276 6.72174C64.056 6.60174 65.926 3.04174 68.866 1.30174Z"/><path id="shape3" transform="matrix(11.9766087315625 0 0 11.978635976408 -89.1316168103423 -2922.8963759053)" fill="#000000" d="M39.8822 7.34912C66.8322 -7.28088 100.922 1.45912 123.642 20.1391C130.312 24.8491 132.822 34.7591 141.052 37.0991C143.562 35.2691 146.072 33.3691 148.952 32.1391C156.872 33.6791 160.762 41.4791 164.572 47.7491C171.592 59.6191 170.872 73.8291 173.732 86.8591C175.112 96.7491 171.512 106.139 171.632 115.939C168.792 130.469 167.592 146.089 158.902 158.659C153.732 164.979 158.332 173.319 160.842 179.799C165.852 189.829 167.482 200.999 169.692 211.859C170.442 216.389 167.802 220.939 164.012 223.289C160.442 224.329 156.662 224.119 152.992 224.169C106.812 223.759 60.6622 223.669 14.4522 223.619C9.66216 208.929 3.87216 193.659 6.18216 177.859C5.94216 170.079 15.6622 167.739 17.6022 160.999C13.7122 146.409 8.98216 131.999 4.95216 117.439C3.58216 114.659 -0.82785 112.819 0.81215 109.249C3.38216 101.369 1.89216 92.9691 2.20216 84.8391C-0.18785 74.4191 -1.68784 62.7491 3.43216 52.9091C5.54216 37.8991 15.8822 25.6191 27.7822 16.9591C28.9022 11.0491 35.9022 10.6791 39.8822 7.34912M128.982 146.859C124.742 149.929 126.852 155.579 126.452 160.009C130.462 158.599 134.142 155.689 135.612 151.609C135.012 146.819 133.882 142.099 133.072 137.339C132.122 140.659 131.932 144.569 128.982 146.859M37.5122 159.349C42.4922 162.749 48.8622 163.179 54.2722 165.759C60.0722 168.409 67.9022 165.319 68.9922 158.669C58.9222 150.229 45.0622 149.419 34.6422 141.489C32.9022 147.439 34.0222 154.249 37.5122 159.349M105.322 160.119C106.762 155.869 108.952 151.549 108.082 146.929C100.672 145.779 100.292 157.379 105.322 160.119Z"/><path id="shape4" transform="matrix(11.9766087315625 0 0 11.978635976408 -1830.74430600116 -501.904866301279)" fill="#000000" d="M0 13.73C2.45 7.66 8.19 1.95 14.47 0C22.49 6.21 26.39 16.53 35.48 21.57C27.45 21.93 19.41 21.75 11.37 21.79C6.13 22.33 2.62 17.52 0 13.73Z"/><path id="shape5" transform="matrix(11.9766087315625 0 0 11.978635976408 0.838467316693133 0.549900732055713)" fill="#000000" d="M64.46 7.10409C69.66 5.08409 73.38 -0.485909 79.48 0.0340915C92.11 0.0340915 104.09 4.85409 115.82 9.04409C121.82 10.8341 126.41 15.3041 131.22 19.0841C138.27 25.6441 145.76 32.4641 149.11 41.7641C152.28 50.5841 157.41 59.1341 156.8 68.8341C156.23 84.4941 158.21 100.374 154.88 115.824C154.65 125.674 154.37 135.594 155.24 145.424C154.72 146.124 154.21 146.824 153.72 147.534C153.24 144.814 151.56 142.724 149.38 141.134C148.52 149.504 144.35 156.854 141.05 164.424C140.36 155.284 140.53 146.074 137.49 137.274C135.54 144.084 134.62 151.114 133.92 158.154C133.09 156.724 132.26 155.294 131.46 153.874C129.04 156.924 126.2 159.624 124 162.844C123.07 168.284 127.35 172.834 130.79 176.524C136.83 181.834 141.08 188.944 147.77 193.554C153.92 198.384 163.06 199.844 166.62 207.564C170.3 216.464 171.15 226.274 170.76 235.834L0 235.834C0.99 226.724 2.51 217.614 5.94 209.074C8.05 202.704 9.61 193.934 17.04 191.774C25.66 188.944 34.45 186.044 41.58 180.224C44.75 177.514 51.98 177.284 51.11 171.854C48.64 166.564 44.75 162.104 41.4 157.374C40.76 160.444 40.15 163.524 39.41 166.574C36.04 159.474 34.13 151.794 31.37 144.444C30.55 144.294 29.75 144.144 28.95 144.004C28.69 145.814 28.44 147.614 28.2 149.434C25.39 149.124 20.6 151.074 19.59 147.314C17.83 142.354 17.02 137.114 15.98 131.974C15.1 132.064 14.22 132.144 13.35 132.224C12.19 134.524 10.82 136.704 9.26 138.754C7.98 129.964 14.45 121.744 11.75 112.834C8.94 103.414 11.07 93.6441 10.37 84.0441C9.38 84.1641 8.39 84.2741 7.41 84.3841C6.99 88.1541 6.5 92.2041 3.25 94.6941C1.06 85.8241 5.92 77.6841 7.5 69.2041C13.05 45.5741 27.46 24.8941 45.73 9.27409C51.56 6.43409 58.32 8.47409 64.46 7.10409Z"/><path id="shape6" transform="matrix(11.9766087315625 0 0 11.978635976408 -6694.32534580136 40.8093454087825)" fill="#000000" d="M94.33 3.15317C108.45 -2.43683 123.81 1.29317 138.51 0.423155C152.79 1.06317 166.67 8.14317 176.12 18.8432C180.18 23.4232 184.36 28.3232 190.23 30.6132C202.7 35.4732 215.83 38.8932 229.2 39.8632C225.39 42.8132 220.67 43.8732 216.05 44.8032C219.44 45.4132 222.78 46.2232 226.12 47.0532C218.55 49.0532 210.74 50.5332 203.69 54.0832C206.14 59.8932 210.89 63.9132 216.8 65.9532C214.76 66.1132 212.72 66.0632 210.69 66.1832C216.94 82.7632 222.5 100.993 217.86 118.723C215.94 128.583 211.12 138.693 201.98 143.733C198.67 145.733 201.36 149.823 202.49 152.393C207.83 151.963 213.3 152.963 217.03 157.113C220.28 157.483 224.01 157.023 226.72 159.213C231.78 164.493 241.37 166.763 239.86 175.983C241.92 177.903 243.42 180.313 244.18 183.033C245.3 183.263 246.42 183.493 247.54 183.733C247.52 184.843 247.49 185.963 247.47 187.093C246.33 187.873 245.2 188.653 244.07 189.443C246.81 195.683 250.06 201.663 253.36 207.613C257.75 215.693 255.94 226.273 249.14 232.473L241.69 232.473C240.11 218.693 238.74 204.873 239.12 190.963C237.11 191.203 235.1 191.333 233.09 191.513C233.33 188.733 235.07 186.613 236.89 184.663C235.25 184.103 233.61 183.543 231.97 183.003C230.78 177.693 226.17 175.773 221.21 175.363C220.07 173.023 218.98 169.183 215.56 170.573C210.6 172.133 205.53 170.103 203.15 165.433C200.03 165.883 196.86 166.753 193.7 166.253C188.5 163.653 185.16 157.983 179.11 156.903C174.95 156.223 171.97 153.303 169.91 149.803C166.29 155.783 162.38 161.583 158.26 167.243C165.01 167.923 172.63 167.153 178.23 171.743C186.15 177.643 188.09 188.013 189.85 197.113C193.34 208.563 192.77 220.643 193.24 232.473L0 232.473C1.03 231.303 2.01 230.103 2.99 228.903C4.5 229.083 6.01 229.293 7.52 229.493C17.69 217.253 32.46 209.453 40.42 195.303C48.29 187.583 61.92 190.033 69.08 181.143C80.02 182.143 88.81 171.363 90.68 161.443C89.69 155.723 83.35 152.843 78.79 150.073C80.42 152.393 82.22 154.603 83.97 156.833C82.5 156.543 81.03 156.263 79.55 155.963C79.4 156.613 79.1 157.893 78.95 158.533C71.72 150.903 62.78 145.153 56.13 136.923C57.47 141.103 59.45 145.023 60.98 149.133C58.32 148.413 57.06 146.053 56.33 143.623C54.43 137.213 47.69 134.013 45.49 127.703C35.66 109.103 38.23 87.1332 43.36 67.5732C41.33 64.1132 37.35 62.8932 33.55 63.5732C34.13 62.8632 34.72 62.1632 35.3 61.4632C26.06 59.3832 17.71 54.8332 10.37 48.9332C19.68 49.4732 29.07 47.1332 37.6 43.5432C34.05 42.9532 29.64 44.0932 26.94 41.0832C33.09 40.0332 39.76 40.5532 45.35 37.3532C50.04 34.8032 54.42 31.7432 58.96 28.9432C64.68 25.7232 67.48 19.4432 72.36 15.2632C78.34 9.16317 86.32 5.69317 94.33 3.15317M196.45 54.9432C197.91 55.9732 199.37 57.0032 200.83 58.0532C200.72 57.1832 200.49 55.4432 200.38 54.5732C199.06 54.6932 197.76 54.8132 196.45 54.9432M197.68 62.4832C199.21 79.8032 197.79 97.7032 203.76 114.313C205.09 123.363 205.24 132.893 202.44 141.693C216.32 130.203 218.87 110.343 215.39 93.6132C212.49 83.4132 210.58 72.5632 204.4 63.7032C202.15 63.3232 199.92 62.9132 197.68 62.4832M52.55 133.893C47.07 118.453 46.4 101.713 47.03 85.4632C42.49 101.163 40.65 120.893 52.55 133.893M182.62 140.143C183.2 140.353 184.36 140.793 184.94 141.003C185.33 141.643 186.11 142.913 186.51 143.543C187.32 139.733 187.75 135.833 187.6 131.943C185.93 134.673 184.27 137.403 182.62 140.143M194.5 145.583C195.49 145.933 196.48 146.293 197.47 146.663C198.53 142.763 199.41 138.793 199.44 134.743C197.24 138.083 196.07 141.933 194.5 145.583M142.79 156.793C140.31 159.253 138.03 163.143 134.04 162.813C137.65 160.093 139.74 156.063 140.97 151.803C137.65 154.763 132.94 156.063 130.14 159.493C129.75 165.553 137.32 165.653 141.49 167.083C149.03 159.643 153.24 149.723 157.76 140.333C151.73 144.793 147.9 151.413 142.79 156.793M87.64 150.913C86.89 152.163 87.97 154.223 89.43 154.313C91.28 153.503 89.32 150.003 87.64 150.913M144.08 167.203C149.75 169.393 152.76 163.193 158.29 164.273C160.9 160.273 162.18 155.663 163.59 151.153C158.22 157.913 149.24 160.303 144.08 167.203M247.73 207.123C248.71 213.683 249.22 220.293 249.03 226.933C254.21 221.903 251.47 212.523 247.73 207.123Z"/><path id="shape7" transform="matrix(11.9766087315625 0 0 11.978635976408 -3367.60732078141 125.056940703915)" fill="#000000" d="M61.3921 0.32C63.2521 0 65.1521 0.05 67.0421 0C69.7221 10.52 61.9021 19.37 61.8621 29.7C68.9921 26.1 75.5221 21.1 83.4521 19.31C90.8121 17.61 98.3321 16.7 105.752 15.33C120.652 15.37 135.342 20.91 146.842 30.38C150.312 33.55 156.562 31.38 159.082 35.76C166.152 46.77 174.172 57.33 178.882 69.65C180.592 76.26 178.992 83.03 177.412 89.48C176.182 93.65 180.392 97.81 177.882 101.79C174.902 107.24 176.222 113.56 176.022 119.48C176.092 125.54 173.662 131.19 171.802 136.84C180.002 139.83 188.832 139.17 197.252 141.07C203.522 142.57 209.682 139.98 215.902 139.47C215.012 144.44 211.512 149.06 206.672 150.67C198.222 152.23 190.202 155.61 182.302 158.84C177.082 161.77 182.132 168.12 186.732 167.48C194.852 167.01 203.072 167.3 210.712 170.41C208.112 175.82 201.022 172.74 196.342 174.01C189.212 176.1 181.912 177.7 174.942 180.32C178.192 185.03 184.682 184.71 188.492 188.5C191.952 195.7 186.082 202.26 183.472 208.58C181.002 215.68 188.752 219.99 191.752 225.44L7.90205 225.44C9.43205 223.62 12.3821 221.49 10.9221 218.85C8.50205 213.23 6.32205 207.5 5.13205 201.47C3.79205 194.75 -1.62795 188.71 0.482052 181.53C3.11205 170 15.2421 164.73 21.5021 155.48C20.6921 149.39 17.0221 143.82 17.8921 137.45C17.3621 127.91 25.2521 121.34 29.0421 113.4C31.0621 106.28 25.2021 99.64 26.4821 92.47C27.4821 87.34 27.6921 81.99 29.6221 77.09C34.6021 66.46 34.7121 53.66 42.9121 44.59C47.9021 39.42 49.2221 32.32 51.4321 25.79C55.8421 17.73 56.8821 8.33 61.3921 0.32Z"/><path id="shape8" transform="matrix(11.9766087315625 0 0 11.978635976408 3069.76011438901 184.128576607478)" fill="#000000" d="M54.217 3.95858C68.707 0.388584 85.007 -2.88142 98.987 4.15858C112.227 8.33858 125.617 14.9486 133.397 26.9186C138.757 38.6986 138.197 51.9086 141.197 64.2786C147.577 75.6686 143.057 89.1886 144.647 101.559C146.357 110.679 144.497 120.279 139.617 128.159C136.347 133.669 133.517 141.899 125.467 140.519C126.097 144.549 127.177 148.489 128.067 152.469C129.467 158.399 126.607 164.759 129.247 170.479C131.117 174.699 133.367 178.839 133.987 183.489C136.007 195.989 140.547 207.959 142.307 220.509L0.00704209 220.509C0.017042 205.159 -0.012958 189.809 0.00704209 174.459C-0.072958 167.249 4.62704 160.769 10.657 157.179C16.997 153.519 23.097 149.399 29.817 146.439C34.587 144.309 39.367 141.109 40.687 135.699C34.827 136.599 27.957 140.299 22.667 135.839C17.087 131.529 8.12704 129.629 6.86704 121.549C4.76704 100.359 13.907 80.3786 19.987 60.5786C19.307 49.0886 15.037 36.5386 20.467 25.5286C28.377 14.2086 41.767 8.75858 54.217 3.95858Z"/><path id="shape9" transform="matrix(11.9766087315625 0 0 11.978635976408 4800.37459192487 2325.53236957006)" fill="#000000" d="M0.0075 0C0.3775 0 1.1175 0 1.4875 0C1.4775 1.16 1.4775 2.32 1.4875 3.48C1.1175 3.48 0.3775 3.47 0.0075 3.47C-0.0025 2.31 -0.0025 1.15 0.0075 0Z"/><path id="shape10" transform="matrix(11.9766087315625 0 0 11.978635976408 -925.791750244296 2506.40977281382)" fill="#000000" d="M20.21 10.83C25.2 9.21 25.66 3.17 29.31 0C30.81 8.81 29.91 17.76 30.13 26.64L0 26.64C5.61 20.13 12.31 14.37 20.21 10.83Z"/>
</svg>
